P2 5 5 255 
255 100 255 150 50 
255 100 255 150 50 
255 100 255 150 50 
255 100 255 150 50 
0 100 255 150 50 
